<svg width="1000" height="1077" viewBox="0 0 1000 1077" fill="none" xmlns="http://www.w3.org/2000/svg">
<path d="M711.977 785.315V887.238L512.931 1031.63V875.912L667.415 765.496C679.3 757.004 697.127 759.835 706.034 771.161C709.008 773.992 711.977 779.654 711.977 785.315Z" fill="#16AB74"/>
<path d="M512.965 1031.57L310.946 887.181V785.258C310.946 771.096 322.827 759.777 340.655 759.777C346.596 759.777 352.536 762.604 355.506 765.438L509.992 875.854L512.965 1031.57Z" fill="#1C8F4E"/>
<path d="M845.673 71.8223V165.251C845.673 168.082 842.7 170.914 842.7 173.745L512.935 408.731V255.85L795.169 52.0046C807.05 40.68 824.873 40.68 836.758 52.0046C842.7 57.6669 845.673 63.3293 845.673 71.8223Z" fill="#EB599B"/>
<path d="M492.208 558.808C492.208 553.142 489.238 547.481 483.292 544.65L129.763 289.842C105.996 275.689 70.3461 281.35 55.4919 306.835C49.55 315.327 46.5792 323.823 46.5792 332.315V700.365L180.267 793.792V513.512C180.267 505.015 189.18 499.35 198.093 499.35C201.063 499.35 204.034 499.35 207.005 502.185L462.496 686.208C471.412 691.873 483.292 691.873 489.238 683.377C492.208 680.546 492.208 677.715 492.208 672.054V558.808Z" fill="url(#paint0_linear_1_2)"/>
<path d="M890.308 289.827L536.777 544.631C530.831 547.465 527.865 553.127 527.865 558.788V669.204C527.865 677.696 536.777 686.189 545.689 686.189C548.662 686.189 554.604 686.189 557.573 683.362L813.069 499.335C819.008 493.673 830.892 496.504 836.835 502.165C839.804 504.996 839.804 507.827 839.804 510.662V793.773L970.519 700.35V332.292C970.519 303.985 943.785 281.335 914.077 284.165C908.135 284.165 899.223 286.996 890.308 289.827Z" fill="url(#paint1_linear_1_2)"/>
<path d="M227.414 49.1454C215.53 40.6523 194.734 43.4831 185.822 54.8077C182.851 60.4704 179.88 66.1323 179.88 71.7946V269.973C179.88 278.473 182.851 284.135 188.793 289.792L280.889 357.742C289.802 363.404 298.714 360.573 304.656 352.077C304.656 349.25 307.627 346.419 307.627 343.585V286.965C307.627 281.3 313.568 275.638 319.512 275.638C322.482 275.638 322.482 275.638 325.452 278.473L509.642 408.704V255.819L227.414 49.1454Z" fill="#E52C46"/>
<defs>
<linearGradient id="paint0_linear_1_2" x1="49.6719" y1="537.869" x2="492.877" y2="537.869" gradientUnits="userSpaceOnUse">
<stop stop-color="#FDC418"/>
<stop offset="1" stop-color="#F6A217"/>
</linearGradient>
<linearGradient id="paint1_linear_1_2" x1="530.304" y1="538.365" x2="973.504" y2="538.365" gradientUnits="userSpaceOnUse">
<stop stop-color="#0319F7"/>
<stop offset="1" stop-color="#2041F9"/>
</linearGradient>
</defs>
</svg>
