<svg width="170" height="33" viewBox="0 0 170 33" fill="none" xmlns="http://www.w3.org/2000/svg">
<path d="M97.6017 32.3363H96.2119V28.8766H97.6017C98.1426 28.8766 98.5287 29.0238 98.8375 29.3183C99.147 29.6126 99.301 30.0543 99.301 30.5696C99.301 31.0849 99.147 31.5265 98.8375 31.821C98.6061 32.1155 98.1426 32.3363 97.6017 32.3363ZM96.9068 29.4655V31.6738H97.6017C97.9112 31.6738 98.22 31.6002 98.3748 31.3794C98.5287 31.1585 98.6835 30.8641 98.6835 30.5696C98.6835 30.2753 98.6061 29.9808 98.3748 29.76C98.22 29.5391 97.9112 29.4655 97.6017 29.4655H96.9068Z" fill="#878787"/>
<path d="M101.545 32.3363V28.8766H102.24V32.3363H101.545Z" fill="#878787"/>
<path d="M106.179 32.3356C105.638 32.3356 105.175 32.1884 104.788 31.8203C104.402 31.4522 104.248 31.0841 104.248 30.5689C104.248 30.0536 104.402 29.612 104.788 29.2439C105.175 28.8759 105.638 28.7286 106.179 28.7286C106.487 28.7286 106.72 28.8023 107.028 28.8759C107.26 28.9494 107.492 29.0968 107.647 29.3176L107.183 29.7592C106.874 29.4647 106.565 29.3176 106.179 29.3176C105.792 29.3176 105.561 29.4647 105.329 29.6856C105.098 29.9064 104.943 30.2009 104.943 30.4953C104.943 30.8633 105.02 31.0841 105.252 31.305C105.484 31.5259 105.792 31.6731 106.101 31.6731C106.333 31.6731 106.487 31.6731 106.642 31.5995C106.797 31.5259 106.951 31.4522 107.106 31.305V30.7898H106.025V30.2009H107.724V31.5995C107.337 32.1148 106.797 32.3356 106.179 32.3356Z" fill="#878787"/>
<path d="M109.969 32.3363V28.8766H110.665V32.3363H109.969Z" fill="#878787"/>
<path d="M113.67 32.3363V29.4655H112.589V28.8766H115.37V29.4655H114.366V32.3363H113.67Z" fill="#878787"/>
<path d="M119.928 32.3363H119.233L118.924 31.5265H117.61L117.302 32.3363H116.607L117.997 28.8766H118.538L119.928 32.3363ZM118.769 30.9377L118.306 29.76L117.843 30.9377H118.769Z" fill="#878787"/>
<path d="M124.407 32.3363H121.858V28.8766H122.554V31.7473H124.407V32.3363Z" fill="#878787"/>
<path d="M130.586 32.3356C130.046 32.3356 129.582 32.1884 129.273 31.8203C128.886 31.4522 128.732 31.0841 128.732 30.5689C128.732 30.0536 128.886 29.612 129.273 29.2439C129.659 28.8759 130.123 28.7286 130.586 28.7286C130.894 28.7286 131.204 28.8023 131.513 28.9494C131.822 29.0968 131.976 29.2439 132.208 29.4647L131.744 29.9064C131.435 29.5384 131.126 29.3912 130.664 29.3912C130.354 29.3912 130.046 29.5384 129.814 29.7592C129.582 29.98 129.427 30.2745 129.427 30.6425C129.427 31.0106 129.505 31.2314 129.736 31.4522C129.968 31.6731 130.276 31.7467 130.586 31.7467C131.05 31.7467 131.435 31.5995 131.667 31.2314L132.131 31.5995C131.976 31.8203 131.744 31.9675 131.435 32.1148C131.204 32.2619 130.894 32.3356 130.586 32.3356Z" fill="#878787"/>
<path d="M133.912 30.5704C133.912 30.0551 134.067 29.6134 134.453 29.319C134.84 28.951 135.303 28.8037 135.767 28.8037C136.307 28.8037 136.77 28.951 137.078 29.319C137.466 29.6871 137.619 30.1287 137.619 30.5704C137.619 31.0857 137.466 31.4537 137.078 31.8218C136.693 32.1898 136.23 32.337 135.767 32.337C135.226 32.337 134.762 32.1898 134.453 31.8218C134.067 31.5273 133.912 31.0857 133.912 30.5704ZM137.002 30.5704C137.002 30.2023 136.848 29.9815 136.616 29.7607C136.384 29.5398 136.075 29.3926 135.767 29.3926C135.457 29.3926 135.148 29.5398 134.917 29.7607C134.685 29.9815 134.607 30.276 134.607 30.5704C134.607 30.9384 134.685 31.1592 134.917 31.3802C135.148 31.601 135.457 31.6746 135.767 31.6746C136.075 31.6746 136.384 31.601 136.616 31.3802C136.925 31.1592 137.002 30.9384 137.002 30.5704Z" fill="#878787"/>
<path d="M140.471 32.3363H139.775V28.8766H140.162L141.63 30.8641L143.097 28.8766H143.56V32.3363H142.866V30.2753L141.784 31.821H141.552L140.471 30.2753V32.3363Z" fill="#878787"/>
<path d="M146.58 32.3363H145.885V28.8766H146.272L147.739 30.8641L149.207 28.8766H149.67V32.3363H148.974V30.2753L147.893 31.821H147.661L146.58 30.2753V32.3363Z" fill="#878787"/>
<path d="M154.378 32.3363H151.982V28.8766H154.378V29.4655H152.6V30.2753H154.223V30.8641H152.6V31.7473H154.378V32.3363Z" fill="#878787"/>
<path d="M159.239 32.3363H158.466L157.616 31.0112H157.153V32.3363H156.458V28.8766H157.849C158.234 28.8766 158.544 28.9502 158.775 29.171C159.007 29.3918 159.084 29.6126 159.084 29.9071C159.084 30.1279 159.007 30.3488 158.853 30.4961C158.698 30.6432 158.544 30.7904 158.312 30.8641L159.239 32.3363ZM157.849 29.4655H157.153V30.4961H157.772C158.003 30.4961 158.08 30.4224 158.234 30.3487C158.312 30.2753 158.389 30.1279 158.389 29.9808C158.389 29.8334 158.312 29.6863 158.234 29.6126C158.157 29.4655 158.08 29.4655 157.849 29.4655Z" fill="#878787"/>
<path d="M162.954 32.3356C162.413 32.3356 161.949 32.1884 161.64 31.8203C161.255 31.4522 161.099 31.0841 161.099 30.5689C161.099 30.0536 161.255 29.612 161.64 29.2439C162.026 28.8759 162.49 28.7286 162.954 28.7286C163.263 28.7286 163.571 28.8023 163.88 28.9494C164.189 29.0968 164.343 29.2439 164.575 29.4647L164.112 29.9064C163.804 29.5384 163.493 29.3912 163.03 29.3912C162.722 29.3912 162.413 29.5384 162.181 29.7592C161.949 29.98 161.795 30.2745 161.795 30.6425C161.795 31.0106 161.872 31.2314 162.104 31.4522C162.335 31.6731 162.645 31.7467 162.954 31.7467C163.416 31.7467 163.804 31.5995 164.034 31.2314L164.498 31.5995C164.343 31.8203 164.112 31.9675 163.804 32.1148C163.571 32.2619 163.263 32.3356 162.954 32.3356Z" fill="#878787"/>
<path d="M168.98 32.3363H166.585V28.8766H168.98V29.4655H167.205V30.2753H168.826V30.8641H167.205V31.7473H168.98V32.3363Z" fill="#878787"/>
<path d="M69.2618 12.8309L69.339 12.3155C69.4935 11.5058 70.1887 10.8433 71.1155 10.8433H72.1197V24.2404C72.1197 24.5348 71.7335 24.6821 71.5018 24.5348L69.2618 22.7683C67.9487 24.2404 66.3266 24.9765 64.3182 24.9765C62.2327 24.9765 60.4561 24.2404 59.1431 22.8418C57.7527 21.4432 57.1348 19.6766 57.1348 17.6154C57.1348 15.5544 57.8299 13.8613 59.1431 12.4627C60.5334 11.1378 62.2327 10.4016 64.3182 10.4016C66.3266 10.6225 67.9487 11.3586 69.2618 12.8309ZM64.7045 22.4738C66.0175 22.4738 67.1763 22.0321 68.1031 21.1487C68.9528 20.2655 69.4162 19.1613 69.4162 17.8363C69.4162 16.5113 68.9528 15.4807 68.1031 14.5238C67.1763 13.6405 66.0948 13.1988 64.7045 13.1988C63.3141 13.1988 62.2327 13.6405 61.3058 14.5238C60.4561 15.4072 59.9927 16.5113 59.9927 17.8363C59.9927 19.1613 60.4561 20.2655 61.3058 21.1487C62.2327 22.0321 63.3141 22.4738 64.7045 22.4738Z" fill="#383838"/>
<path d="M105.026 12.8301L105.103 12.3885C105.257 11.5787 105.953 10.9163 106.88 10.9163H107.884V24.3133C107.884 24.6078 107.497 24.7551 107.266 24.6078L105.026 22.8412C103.713 24.3133 102.091 25.0495 100.083 25.0495C97.9963 25.0495 96.2204 24.3133 94.9072 22.9147C93.5166 21.5162 92.8983 19.7496 92.8983 17.6885C92.8983 15.6273 93.594 13.9343 94.9072 12.5357C96.297 11.2107 97.9963 10.4746 100.083 10.4746C102.091 10.6218 103.713 11.3579 105.026 12.8301ZM100.469 22.4731C101.782 22.4731 102.94 22.0315 103.867 21.1482C104.717 20.2648 105.181 19.1606 105.181 17.8357C105.181 16.5106 104.717 15.4801 103.867 14.5232C102.94 13.6399 101.858 13.1983 100.469 13.1983C99.0781 13.1983 97.9963 13.6399 97.07 14.5232C96.2204 15.4065 95.7568 16.5106 95.7568 17.8357C95.7568 19.1606 96.2204 20.2648 97.07 21.1482C97.9963 22.0315 99.0781 22.4731 100.469 22.4731Z" fill="#383838"/>
<path d="M125.876 17.8347C125.876 15.8472 126.572 14.1543 128.04 12.682C129.507 11.2834 131.36 10.5473 133.524 10.5473C135.764 10.5473 137.54 11.2834 139.008 12.682C140.475 14.0806 141.17 15.7737 141.17 17.8347C141.17 19.8958 140.475 21.5889 139.008 22.9874C137.617 24.386 135.764 25.1222 133.524 25.1222C131.283 25.1222 129.428 24.386 128.04 22.9874C126.649 21.5889 125.876 19.8223 125.876 17.8347ZM138.235 17.8347C138.235 16.5834 137.772 15.4792 136.844 14.5959C135.995 13.639 134.836 13.1973 133.524 13.1973C132.21 13.1973 131.128 13.639 130.202 14.5959C129.275 15.4792 128.889 16.5834 128.889 17.8347C128.889 19.0862 129.352 20.1903 130.202 21.1472C131.128 22.0305 132.21 22.4721 133.524 22.4721C134.836 22.4721 135.917 22.0305 136.844 21.1472C137.772 20.1903 138.235 19.0862 138.235 17.8347Z" fill="#383838"/>
<path d="M166.04 12.829V7.30822C166.04 6.35128 166.89 5.54156 167.895 5.54156H169.053V23.7969C169.053 24.3122 168.436 24.6067 168.049 24.2385L166.117 22.7665C164.882 24.2385 163.26 25.0483 161.252 25.0483C159.166 25.0483 157.39 24.3859 156.076 22.9873C154.687 21.5887 153.991 19.8219 153.991 17.8346C153.991 15.847 154.687 14.0804 156.076 12.6817C157.466 11.2831 159.166 10.5471 161.252 10.5471C163.183 10.6207 164.805 11.3568 166.04 12.829ZM166.273 17.8346C166.273 16.5095 165.809 15.479 164.959 14.5221C164.109 13.6387 162.951 13.197 161.56 13.197C160.171 13.197 159.089 13.6387 158.162 14.5221C157.313 15.4053 156.849 16.5095 156.849 17.8346C156.849 19.1595 157.313 20.2636 158.162 21.147C159.012 22.0303 160.171 22.472 161.56 22.472C162.951 22.472 164.032 22.0303 164.959 21.147C165.887 20.2636 166.273 19.1595 166.273 17.8346Z" fill="#383838"/>
<path d="M87.3273 12.3868L87.2499 12.902C85.9367 11.4298 84.3148 10.6201 82.3059 10.6201C80.2205 10.6201 78.4442 11.2826 77.1311 12.6812C75.7408 14.0062 75.1229 15.7729 75.1229 17.834C75.1229 19.895 75.818 21.6617 77.1311 23.0603C78.5214 24.4589 80.2205 25.195 82.3059 25.195C84.3148 25.195 85.9367 24.4589 87.2499 22.9867V24.827C87.2499 26.8144 85.5506 28.4338 83.4651 28.4338H77.44C77.054 28.4338 76.8994 28.8755 77.2084 29.0964L79.371 30.7894C79.6027 31.0102 79.9891 31.0838 80.2978 31.0838H83.5417C87.1725 31.0838 90.1077 28.2867 90.1077 24.827V24.7533V10.9146H89.1032C88.2536 10.9146 87.4813 11.5771 87.3273 12.3868ZM86.0907 21.1464C85.1645 22.0297 84.0826 22.4715 82.6921 22.4715C81.3023 22.4715 80.2205 22.0297 79.2939 21.1464C78.4442 20.2632 77.9807 19.159 77.9807 17.834C77.9807 16.509 78.4442 15.4047 79.2939 14.5215C80.1431 13.6382 81.3023 13.1965 82.6921 13.1965C84.0053 13.1965 85.1645 13.6382 86.0907 14.5215C86.9404 15.4047 87.4039 16.509 87.4039 17.834C87.4039 19.159 86.9404 20.2632 86.0907 21.1464Z" fill="#383838"/>
<path d="M152.839 10.6201H148.977C146.274 10.6201 144.111 12.6812 144.111 15.2576V25.0478H147.201L147.124 15.8465C147.124 14.5215 148.205 13.491 149.518 13.491L151.835 13.4174L153.302 11.5771C153.689 11.1355 153.38 10.6201 152.839 10.6201Z" fill="#383838"/>
<path d="M44.2318 17.8352L35.1945 11.3576C34.8083 11.0631 34.1903 11.3576 34.1903 11.7992V22.7672C34.1903 23.1352 34.422 23.5033 34.8083 23.7242L36.5849 24.681C36.8938 24.8283 37.28 24.6075 37.28 24.313V16.4366L42.9187 20.4853L44.2318 21.4422L45.5449 20.4853L51.1836 16.4366V24.3866C51.1836 24.681 51.5698 24.902 51.8788 24.7546L53.6553 23.7977C54.0416 23.5769 54.2734 23.2089 54.2734 22.8408V11.7992C54.2734 11.2839 53.6553 11.0631 53.2692 11.3576L44.2318 17.8352Z" fill="#383838"/>
<path d="M125.57 10.916H122.634H122.017H113.366C113.057 10.916 112.825 11.0632 112.67 11.284L111.28 13.0507C111.126 13.2715 111.28 13.6395 111.588 13.6395H119.776L110.662 25.1228H113.366H114.215H122.866C123.175 25.1228 123.407 24.9756 123.561 24.7548L124.952 22.9881C125.107 22.7673 124.952 22.3992 124.643 22.3992H116.378L125.57 10.916Z" fill="#383838"/>
<path d="M18.5114 25.4182V28.0682L13.3362 31.8223V27.7737L17.3528 24.9029C17.6618 24.6821 18.1253 24.7557 18.3569 25.0502C18.4342 25.1238 18.5114 25.271 18.5114 25.4182Z" fill="#16AB74"/>
<path d="M13.3371 31.8208L8.08459 28.0667V25.4167C8.08459 25.0485 8.39351 24.7542 8.85703 24.7542C9.01149 24.7542 9.16594 24.8277 9.24317 24.9014L13.2598 27.7722L13.3371 31.8208Z" fill="#1C8F4E"/>
<path d="M21.9875 6.86738V9.29653C21.9875 9.37014 21.9102 9.44376 21.9102 9.51737L13.3363 15.627V11.6521L20.6744 6.35212C20.9833 6.05768 21.4467 6.05768 21.7557 6.35212C21.9102 6.49934 21.9875 6.64656 21.9875 6.86738Z" fill="#EB599B"/>
<path d="M12.7974 19.529C12.7974 19.3817 12.7202 19.2345 12.5656 19.1609L3.37383 12.5359C2.7559 12.1679 1.829 12.3151 1.44279 12.9777C1.2883 13.1985 1.21106 13.4194 1.21106 13.6402V23.2095L4.68695 25.6386V18.3513C4.68695 18.1304 4.91868 17.9831 5.15041 17.9831C5.22765 17.9831 5.30489 17.9831 5.38213 18.0568L12.0249 22.8414C12.2567 22.9887 12.5656 22.9887 12.7202 22.7678C12.7974 22.6942 12.7974 22.6206 12.7974 22.4734V19.529Z" fill="url(#paint0_linear_1_2)"/>
<path d="M23.148 12.5355L13.9562 19.1604C13.8016 19.2341 13.7245 19.3813 13.7245 19.5285V22.3993C13.7245 22.6201 13.9562 22.8409 14.1879 22.8409C14.2652 22.8409 14.4197 22.8409 14.4969 22.7674L21.1398 17.9827C21.2942 17.8355 21.6032 17.9091 21.7577 18.0563C21.8349 18.1299 21.8349 18.2035 21.8349 18.2772V25.6381L25.2335 23.2091V13.6396C25.2335 12.9036 24.5384 12.3147 23.766 12.3883C23.6115 12.3883 23.3798 12.4619 23.148 12.5355Z" fill="url(#paint1_linear_1_2)"/>
<path d="M5.91276 6.27778C5.60379 6.05696 5.06309 6.13056 4.83136 6.425C4.75413 6.57223 4.67688 6.71944 4.67688 6.86666V12.0193C4.67688 12.2403 4.75413 12.3875 4.90861 12.5346L7.30312 14.3013C7.53484 14.4485 7.76657 14.3749 7.92106 14.154C7.92106 14.0805 7.9983 14.0069 7.9983 13.9332V12.4611C7.9983 12.3138 8.15276 12.1666 8.30731 12.1666C8.38453 12.1666 8.38453 12.1666 8.46175 12.2403L13.2507 15.6263V11.6513L5.91276 6.27778Z" fill="#E52C46"/>
<defs>
<linearGradient id="paint0_linear_1_2" x1="1.29147" y1="18.9846" x2="12.8148" y2="18.9846" gradientUnits="userSpaceOnUse">
<stop stop-color="#FDC418"/>
<stop offset="1" stop-color="#F6A217"/>
</linearGradient>
<linearGradient id="paint1_linear_1_2" x1="13.7879" y1="18.9975" x2="25.3111" y2="18.9975" gradientUnits="userSpaceOnUse">
<stop stop-color="#0319F7"/>
<stop offset="1" stop-color="#2041F9"/>
</linearGradient>
</defs>
</svg>
